<mxfile host="app.diagrams.net" modified="2023-10-18T13:27:48.099Z" agent="Mozilla/5.0 (Windows NT 10.0; Win64; x64) AppleWebKit/537.36 (KHTML, like Gecko) Chrome/118.0.0.0 Safari/537.36" etag="GESAQPHmkIZQ5iXM_S8S" version="22.0.4" type="github">
  <diagram name="페이지-1" id="1ifjo0XNYDds0OLqEPlk">
    <mxGraphModel dx="2440" dy="1315" grid="1" gridSize="10" guides="1" tooltips="1" connect="1" arrows="1" fold="1" page="1" pageScale="1" pageWidth="827" pageHeight="1169" math="0" shadow="0">
      <root>
        <mxCell id="0" />
        <mxCell id="1" parent="0" />
        <mxCell id="I464qLgUhNRLuWhhTVEp-1" value="이용자" style="shape=umlActor;verticalLabelPosition=bottom;verticalAlign=top;html=1;" vertex="1" parent="1">
          <mxGeometry x="50" y="230" width="30" height="60" as="geometry" />
        </mxCell>
        <mxCell id="I464qLgUhNRLuWhhTVEp-2" value="게시판 서비스" style="shape=umlFrame;whiteSpace=wrap;html=1;pointerEvents=0;width=130;height=30;" vertex="1" parent="1">
          <mxGeometry x="140" y="20" width="780" height="640" as="geometry" />
        </mxCell>
        <mxCell id="I464qLgUhNRLuWhhTVEp-4" value="회원 가입" style="rounded=1;whiteSpace=wrap;html=1;arcSize=40;fontColor=#000000;fillColor=#ffffc0;strokeColor=#ff0000;" vertex="1" parent="1">
          <mxGeometry x="180" y="220" width="140" height="50" as="geometry" />
        </mxCell>
        <mxCell id="I464qLgUhNRLuWhhTVEp-22" style="rounded=0;orthogonalLoop=1;jettySize=auto;html=1;exitX=0;exitY=0.5;exitDx=0;exitDy=0;endArrow=none;endFill=0;" edge="1" parent="1" source="I464qLgUhNRLuWhhTVEp-6">
          <mxGeometry relative="1" as="geometry">
            <mxPoint x="80" y="249.99999999999977" as="targetPoint" />
          </mxGeometry>
        </mxCell>
        <mxCell id="I464qLgUhNRLuWhhTVEp-29" style="rounded=0;orthogonalLoop=1;jettySize=auto;html=1;exitX=1;exitY=0.25;exitDx=0;exitDy=0;dashed=1;" edge="1" parent="1" source="I464qLgUhNRLuWhhTVEp-6">
          <mxGeometry relative="1" as="geometry">
            <mxPoint x="399.9999999999998" y="120" as="targetPoint" />
          </mxGeometry>
        </mxCell>
        <mxCell id="I464qLgUhNRLuWhhTVEp-6" value="게시글 보기" style="rounded=1;whiteSpace=wrap;html=1;arcSize=40;fontColor=#000000;fillColor=#ffffc0;strokeColor=#ff0000;" vertex="1" parent="1">
          <mxGeometry x="180" y="420" width="140" height="50" as="geometry" />
        </mxCell>
        <mxCell id="I464qLgUhNRLuWhhTVEp-7" value="게시판 보기" style="rounded=1;whiteSpace=wrap;html=1;arcSize=40;fontColor=#000000;fillColor=#ffffc0;strokeColor=#ff0000;" vertex="1" parent="1">
          <mxGeometry x="180" y="310" width="140" height="50" as="geometry" />
        </mxCell>
        <mxCell id="I464qLgUhNRLuWhhTVEp-8" value="로그인" style="rounded=1;whiteSpace=wrap;html=1;arcSize=40;fontColor=#000000;fillColor=#ffffc0;strokeColor=#ff0000;" vertex="1" parent="1">
          <mxGeometry x="320" y="70" width="140" height="50" as="geometry" />
        </mxCell>
        <mxCell id="I464qLgUhNRLuWhhTVEp-23" style="rounded=0;orthogonalLoop=1;jettySize=auto;html=1;exitX=0;exitY=0.5;exitDx=0;exitDy=0;entryX=1;entryY=0.5;entryDx=0;entryDy=0;endArrow=none;endFill=0;dashed=1;dashPattern=8 8;" edge="1" parent="1" source="I464qLgUhNRLuWhhTVEp-9" target="I464qLgUhNRLuWhhTVEp-8">
          <mxGeometry relative="1" as="geometry" />
        </mxCell>
        <mxCell id="I464qLgUhNRLuWhhTVEp-25" value="&amp;lt;&amp;lt;include&amp;gt;&amp;gt;" style="edgeLabel;html=1;align=center;verticalAlign=middle;resizable=0;points=[];fontSize=15;" vertex="1" connectable="0" parent="I464qLgUhNRLuWhhTVEp-23">
          <mxGeometry x="-0.034" relative="1" as="geometry">
            <mxPoint as="offset" />
          </mxGeometry>
        </mxCell>
        <mxCell id="I464qLgUhNRLuWhhTVEp-9" value="인증" style="rounded=1;whiteSpace=wrap;html=1;arcSize=40;fontColor=#000000;fillColor=#ffffc0;strokeColor=#ff0000;" vertex="1" parent="1">
          <mxGeometry x="640" y="70" width="140" height="50" as="geometry" />
        </mxCell>
        <mxCell id="I464qLgUhNRLuWhhTVEp-24" style="rounded=0;orthogonalLoop=1;jettySize=auto;html=1;exitX=0;exitY=0.5;exitDx=0;exitDy=0;entryX=1;entryY=0.5;entryDx=0;entryDy=0;endArrow=classic;endFill=1;dashed=1;dashPattern=8 8;" edge="1" parent="1" source="I464qLgUhNRLuWhhTVEp-10" target="I464qLgUhNRLuWhhTVEp-8">
          <mxGeometry relative="1" as="geometry" />
        </mxCell>
        <mxCell id="I464qLgUhNRLuWhhTVEp-27" value="&amp;lt;&amp;lt;extend&amp;gt;&amp;gt;" style="edgeLabel;html=1;align=center;verticalAlign=middle;resizable=0;points=[];fontSize=15;" vertex="1" connectable="0" parent="I464qLgUhNRLuWhhTVEp-24">
          <mxGeometry x="-0.052" y="4" relative="1" as="geometry">
            <mxPoint y="1" as="offset" />
          </mxGeometry>
        </mxCell>
        <mxCell id="I464qLgUhNRLuWhhTVEp-10" value="로그인 실패" style="rounded=1;whiteSpace=wrap;html=1;arcSize=40;fontColor=#000000;fillColor=#ffffc0;strokeColor=#ff0000;" vertex="1" parent="1">
          <mxGeometry x="640" y="170" width="140" height="50" as="geometry" />
        </mxCell>
        <mxCell id="I464qLgUhNRLuWhhTVEp-12" value="게시판 정렬" style="rounded=1;whiteSpace=wrap;html=1;arcSize=40;fontColor=#000000;fillColor=#ffffc0;strokeColor=#ff0000;" vertex="1" parent="1">
          <mxGeometry x="410" y="330" width="140" height="50" as="geometry" />
        </mxCell>
        <mxCell id="I464qLgUhNRLuWhhTVEp-13" value="게시판 검색" style="rounded=1;whiteSpace=wrap;html=1;arcSize=40;fontColor=#000000;fillColor=#ffffc0;strokeColor=#ff0000;" vertex="1" parent="1">
          <mxGeometry x="410" y="400" width="140" height="50" as="geometry" />
        </mxCell>
        <mxCell id="I464qLgUhNRLuWhhTVEp-14" value="게시글 쓰기, 수정, 삭제" style="rounded=1;whiteSpace=wrap;html=1;arcSize=40;fontColor=#000000;fillColor=#ffffc0;strokeColor=#ff0000;" vertex="1" parent="1">
          <mxGeometry x="410" y="530" width="140" height="50" as="geometry" />
        </mxCell>
        <mxCell id="I464qLgUhNRLuWhhTVEp-15" value="댓글 보기, 쓰기, &lt;br&gt;수정, 삭제" style="rounded=1;whiteSpace=wrap;html=1;arcSize=40;fontColor=#000000;fillColor=#ffffc0;strokeColor=#ff0000;" vertex="1" parent="1">
          <mxGeometry x="410" y="600" width="140" height="50" as="geometry" />
        </mxCell>
        <mxCell id="I464qLgUhNRLuWhhTVEp-17" style="rounded=0;orthogonalLoop=1;jettySize=auto;html=1;exitX=0;exitY=0.5;exitDx=0;exitDy=0;entryX=1;entryY=0.3333333333333333;entryDx=0;entryDy=0;entryPerimeter=0;endArrow=none;endFill=0;" edge="1" parent="1" source="I464qLgUhNRLuWhhTVEp-4" target="I464qLgUhNRLuWhhTVEp-1">
          <mxGeometry relative="1" as="geometry" />
        </mxCell>
        <mxCell id="I464qLgUhNRLuWhhTVEp-18" style="rounded=0;orthogonalLoop=1;jettySize=auto;html=1;exitX=0;exitY=0.5;exitDx=0;exitDy=0;entryX=1;entryY=0.3333333333333333;entryDx=0;entryDy=0;entryPerimeter=0;endArrow=none;endFill=0;" edge="1" parent="1" source="I464qLgUhNRLuWhhTVEp-8" target="I464qLgUhNRLuWhhTVEp-1">
          <mxGeometry relative="1" as="geometry" />
        </mxCell>
        <mxCell id="I464qLgUhNRLuWhhTVEp-21" style="rounded=0;orthogonalLoop=1;jettySize=auto;html=1;exitX=0;exitY=0.5;exitDx=0;exitDy=0;entryX=1;entryY=0.3333333333333333;entryDx=0;entryDy=0;entryPerimeter=0;endArrow=none;endFill=0;" edge="1" parent="1" source="I464qLgUhNRLuWhhTVEp-7" target="I464qLgUhNRLuWhhTVEp-1">
          <mxGeometry relative="1" as="geometry" />
        </mxCell>
        <mxCell id="I464qLgUhNRLuWhhTVEp-28" style="rounded=0;orthogonalLoop=1;jettySize=auto;html=1;exitX=1;exitY=0.25;exitDx=0;exitDy=0;entryX=0.564;entryY=0.967;entryDx=0;entryDy=0;entryPerimeter=0;dashed=1;" edge="1" parent="1" source="I464qLgUhNRLuWhhTVEp-7" target="I464qLgUhNRLuWhhTVEp-8">
          <mxGeometry relative="1" as="geometry" />
        </mxCell>
      </root>
    </mxGraphModel>
  </diagram>
</mxfile>
